# xmcd CD database file
#
# Track frame offsets:
#	150
#	14669
#	28820
#	46850
#	62677
#	79107
#	95579
#	111954
#	128713
#	145244
#
# Disc length: 2122 seconds
#
# Revision: 0
# Processed by: cddbd v1.5.2PL0 Copyright (c) Steve Scherf et al.
# Submitted via: CDex 1.51
#
DISCID=8608480a
DTITLE=Anjanel Folkens - Roadtrip
DYEAR=2007
DGENRE=Country
TTITLE0=Superman
TTITLE1=Cool
TTITLE2=Somewhere Inside
TTITLE3=Roadtrip
TTITLE4=Crashing
TTITLE5=Tomboy
TTITLE6=New
TTITLE7=What Happens
TTITLE8=Be As One
TTITLE9=Lord's Mountain
EXTD=YEAR: 2007
EXTT0=
EXTT1=
EXTT2=
EXTT3=
EXTT4=
EXTT5=
EXTT6=
EXTT7=
EXTT8=
EXTT9=
PLAYORDER=
